<?xml version="1.0" encoding="UTF-8"?>
<svg id="Layer_2" data-name="Layer 2" xmlns="http://www.w3.org/2000/svg" viewBox="0 0 239.74 149.75">
  <defs>
    <style>
      .cls-1 {
        fill: #00539B;
      }
    </style>
  </defs>
  <g id="Layer_2-2" data-name="Layer 2">
    <path class="cls-1" d="m237.92,27.59L212.15,1.82c-2.43-2.43-6.37-2.43-8.81,0l-27.49,27.49c-.71.71-1.68,1.11-2.69,1.11s-2.12-.45-2.83-1.16l.25.25h0s-9.44-9.44-9.44-9.44c-3-3.01-7.88-3.01-10.88,0l-29.13,29.13-31.29,31.29-3.28,3.28-31.89-31.89c-.71-.71-1.11-1.68-1.11-2.69,0-.76.16-1.6.6-2.18h0s8.59-8.59,8.59-8.59c1.81-2.44,1.62-5.9-.59-8.11L36.4,4.57c-2.43-2.43-6.37-2.43-8.81,0L1.82,30.34c-2.43,2.43-2.43,6.37,0,8.81l27.49,27.49c.71.71,1.11,1.68,1.11,2.69,0,.76-.22,1.49-.64,2.11h0s0,0,0,0l-7.96,7.96c-2.43,2.43-2.43,6.37,0,8.81l30.17,30.17h0l29.13,29.13c3.01,3.01,7.88,3.01,10.88,0l29.13-29.13,34.57-34.57,29.13-29.13c.23-.23.44-.48.64-.73.2-.2.41-.42.62-.63.05-.05.11-.11.17-.16.17-.17.35-.34.54-.51.08-.08.16-.15.25-.23.18-.16.35-.31.53-.47.08-.07.16-.14.24-.21.25-.21.51-.41.75-.58.34-.24.73-.41,1.14-.51,1.08-.25,2.2.18,2.98.96l10.63,10.6c2.43,2.43,6.37,2.43,8.81,0l25.77-25.77c2.43-2.43,2.43-6.37,0-8.81Z"/>
  </g>
</svg>